<svg xmlns="http://www.w3.org/2000/svg" width="32" height="32" viewBox="0 0 32 32">
    <path fill="#FFF" fill-rule="nonzero" d="M15.98 0C7.155 0 0 7.155 0 15.98s7.155 15.98 15.98 15.98 15.98-7.155 15.98-15.98C31.96 7.153 24.805 0 15.98 0zm7.95 12.392l.012.51c0 5.201-3.957 11.194-11.194 11.194-2.221 0-4.289-.651-6.03-1.768a7.895 7.895 0 0 0 5.825-1.628 3.94 3.94 0 0 1-3.676-2.732c.242.045.485.067.741.067.36 0 .707-.045 1.037-.135a3.938 3.938 0 0 1-3.156-3.858v-.05a3.929 3.929 0 0 0 1.781.494 3.933 3.933 0 0 1-1.75-3.274c0-.721.194-1.396.532-1.977a11.166 11.166 0 0 0 8.11 4.11 3.935 3.935 0 0 1 6.706-3.588 7.967 7.967 0 0 0 2.498-.954 3.945 3.945 0 0 1-1.73 2.177 7.887 7.887 0 0 0 2.26-.619 7.953 7.953 0 0 1-1.966 2.031z"/>
</svg>
