<svg xmlns="http://www.w3.org/2000/svg" width="32" height="32" viewBox="0 0 32 32">
    <path fill="#FFF" fill-rule="nonzero" d="M16 0c8.837 0 16 7.163 16 16 0 8.836-7.163 16-16 16S0 24.836 0 16C0 7.163 7.163 0 16 0zm8.959 11.076l-5.76-2.88a.202.202 0 0 0-.083-.02l-.006-.001c-.07 0-.14.035-.177.096l-3.55 5.769 3.963 6.44 5.669-9.212a.136.136 0 0 0-.056-.192zm-11.454.937v6.217l5.526 2.762-5.526-8.979zm6.009 9.217l5.074 2.537c.277.138.504-.002.504-.311v-11.29l-5.578 9.064zm-6.619-10.125L7.58 8.448l-.336-.168a.307.307 0 0 0-.136-.036.183.183 0 0 0-.145.066.277.277 0 0 0-.055.177v12.13c0 .206.151.451.336.543l5.222 2.611a.465.465 0 0 0 .204.053c.176 0 .299-.136.299-.365V11.226a.133.133 0 0 0-.074-.121z"/>
</svg>
