<svg xmlns="http://www.w3.org/2000/svg" width="32" height="32" viewBox="0 0 32 32">
    <path fill="#FFF" fill-rule="nonzero" d="M13.645 19.18l1.3.969-1.358 1.34-.123.133.022-.296c.052-.715.104-1.431.159-2.146zm3.56-6.304c-2.201 1.388-4.402 2.78-6.605 4.168-.044.028-.093.05-.143.072.288.922.577 1.845.864 2.768.206.65.419 1.297.613 1.949.08.27.22.415.513.364.081-1.104.16-2.206.243-3.31.01-.129.024-.26.04-.388-.124-.072-.07-.208-.027-.254l.228-.237c.028-.025.056-.05.082-.076l.113-.119.546-.513a114.104 114.104 0 0 1 1.166-1.084c.73-.664 1.477-1.314 2.21-1.976.933-.845 1.865-1.692 2.79-2.547.068-.094.112-.216.172-.32-.166.022-.36-.005-.492.073-.779.464-1.545.946-2.313 1.43zM32 16c0 8.837-7.164 16-16 16-8.837 0-16-7.163-16-16S7.163 0 16 0c8.836 0 16 7.163 16 16zm-8.855-6.374c-.009-.061-.015-.124-.027-.184-.141-.68-.513-.884-1.18-.656-.097.033-.197.054-.296.081-.372.154-.74.318-1.117.459-.625.236-1.256.456-1.886.683-.384.16-.766.328-1.154.48-.971.379-1.944.751-2.917 1.127l-6.01 2.316c-.449.174-.903.338-1.348.523-.392.162-.791.319-1.152.536-.16.096-.335.348-.317.508.018.161.265.3.416.444.028.026.075.035.114.047l3.186.985a.96.96 0 0 0 .041.335l.386 1.24.508 1.624c.06.19.12.374.178.56.145.452.295.92.431 1.377.297.993 1.099 1.07 1.338 1.07.035 0 .073-.002.11-.004l.11.003c.613 0 1.007-.338 1.241-.54.044-.038.085-.073.115-.095a.885.885 0 0 0 .133-.12c.03-.032.058-.065.088-.096.05-.055.096-.106.137-.147a697.3 697.3 0 0 1 1.069-1.057l.423-.417c.06.04.12.082.179.123.963.719 1.924 1.44 2.89 2.156.722.533 1.226.395 1.575-.42l.444-2.061c.135-.686.27-1.37.403-2.054l.255-1.128.675-3.178.217-1.014c.017-.08.038-.16.054-.242l.688-3.264z"/>
</svg>
