<svg xmlns="http://www.w3.org/2000/svg" width="32" height="32" viewBox="0 0 32 32">
    <path fill="#FFF" fill-rule="nonzero" d="M20.713 8.49H11.2a2.757 2.757 0 0 0-2.753 2.754v9.512A2.757 2.757 0 0 0 11.2 23.51h9.512a2.757 2.757 0 0 0 2.754-2.754v-9.512a2.757 2.757 0 0 0-2.754-2.753zm-4.756 12.454A4.95 4.95 0 0 1 11.013 16a4.95 4.95 0 0 1 4.944-4.944A4.95 4.95 0 0 1 20.901 16a4.95 4.95 0 0 1-4.944 4.944zm5.103-8.866c-.645 0-1.17-.525-1.17-1.17 0-.645.525-1.17 1.17-1.17.645 0 1.17.525 1.17 1.17 0 .645-.525 1.17-1.17 1.17zm-5.103 1.067A2.858 2.858 0 0 1 18.812 16a2.858 2.858 0 0 1-2.855 2.855A2.859 2.859 0 0 1 13.102 16a2.859 2.859 0 0 1 2.855-2.855zm0-13.145C7.145 0 0 7.145 0 15.957c0 8.812 7.145 15.957 15.957 15.957 8.812 0 15.957-7.145 15.957-15.957C31.914 7.145 24.769 0 15.957 0zm9.599 20.756a4.848 4.848 0 0 1-4.843 4.843H11.2a4.848 4.848 0 0 1-4.843-4.843v-9.512a4.848 4.848 0 0 1 4.843-4.843h9.512a4.848 4.848 0 0 1 4.843 4.843v9.512z"/>
</svg>
